<svg width="118" height="87" viewBox="0 0 118 87" fill="none" 
  xmlns="http://www.w3.org/2000/svg">
  <path d="M6.93948 80.1873C6.85273 80.2451 6.70816 80.3029 6.53468 80.3608C6.36119 80.4475 6.15879 80.5053 5.92747 80.5921C5.69615 80.6788 5.43592 80.7366 5.14678 80.7945C4.85763 80.8523 4.53958 80.8812 4.22152 80.8812C3.87454 80.8812 3.55648 80.8234 3.23842 80.7367C2.92036 80.6499 2.66013 80.5053 2.42882 80.3029C2.1975 80.1005 1.9951 79.8692 1.87944 79.5801C1.73487 79.2909 1.67704 78.944 1.67704 78.5681V69.8648H0V68.5926H1.67704V64.5156H3.26734V68.6215H6.07204V69.8937H3.26734V78.1343C3.29625 78.597 3.46974 78.915 3.75888 79.1174C4.04803 79.3198 4.36609 79.4355 4.74198 79.4355C5.20461 79.4355 5.5805 79.3488 5.92747 79.2042C6.27444 79.0596 6.47685 78.944 6.5925 78.8861L6.93948 80.1873Z" fill="#4198D7"/>
  <path d="M11.9706 81.0251C11.3923 81.0251 10.8719 80.9383 10.3803 80.7359C9.88876 80.5335 9.45504 80.2733 9.10807 79.9263C8.73218 79.5793 8.47195 79.1745 8.26955 78.7119C8.06715 78.2493 7.98041 77.7577 7.98041 77.2373C7.98041 76.7168 8.09606 76.2253 8.35629 75.7626C8.61653 75.3 8.9635 74.9241 9.39722 74.606C9.85985 74.288 10.3803 74.0278 11.0164 73.8543C11.6236 73.6808 12.3176 73.594 13.0694 73.594C13.6766 73.594 14.3127 73.6519 14.9488 73.7675C15.5849 73.8832 16.1632 74.0278 16.6548 74.2302V73.1314C16.6548 72.0616 16.3656 71.1941 15.7584 70.5869C15.1512 69.9508 14.3127 69.6328 13.2428 69.6328C12.6067 69.6328 11.9706 69.7484 11.3345 70.0086C10.6695 70.2689 10.0333 70.6159 9.33939 71.0785L8.79001 70.0376C10.3514 68.9677 11.8839 68.4473 13.3585 68.4473C14.891 68.4473 16.0765 68.881 16.9439 69.7195C17.8113 70.5869 18.245 71.7435 18.245 73.276V78.7697C18.245 79.2034 18.4475 79.4348 18.8233 79.4348V80.8227C18.5631 80.8805 18.3607 80.8805 18.2161 80.8805C17.8113 80.8805 17.4933 80.7937 17.262 80.5913C17.0306 80.3889 16.915 80.0998 16.8861 79.7528L16.8282 78.7986C16.2789 79.5215 15.556 80.0998 14.7175 80.4757C13.879 80.8227 12.9537 81.0251 11.9706 81.0251ZM12.3465 79.8107C13.1561 79.8107 13.9368 79.6661 14.6307 79.348C15.3247 79.03 15.8451 78.6252 16.1921 78.1047C16.3367 77.9601 16.4234 77.8156 16.5102 77.6421C16.568 77.4686 16.6258 77.324 16.6258 77.1794V75.2133C16.1054 75.0109 15.556 74.8663 14.9777 74.7506C14.3994 74.635 13.8211 74.5771 13.2428 74.5771C12.1152 74.5771 11.2188 74.8085 10.5249 75.2711C9.83093 75.7337 9.48396 76.3409 9.48396 77.1216C9.48396 77.4975 9.5707 77.8445 9.71528 78.1625C9.85985 78.4806 10.0623 78.7697 10.3225 79.0011C10.5827 79.2324 10.8719 79.4348 11.2477 79.5793C11.5658 79.7239 11.9417 79.8107 12.3465 79.8107Z" fill="#4198D7"/>
  <path d="M39.6996 80.7949H38.1093V74C38.1093 72.5832 37.878 71.5423 37.4443 70.8773C36.9816 70.2122 36.3166 69.8653 35.4492 69.8653C34.9865 69.8653 34.5528 69.952 34.1191 70.1255C33.7143 70.299 33.3384 70.5303 32.9625 70.8484C32.6156 71.1664 32.2975 71.5423 32.0373 71.9471C31.777 72.3808 31.5746 72.8435 31.4301 73.3639V80.766H29.8687V73.9711C29.8687 72.5254 29.6374 71.4845 29.2036 70.8194C28.7699 70.1544 28.1049 69.8363 27.2085 69.8363C26.2833 69.8363 25.4737 70.1544 24.7508 70.7905C24.028 71.4267 23.5364 72.2652 23.2183 73.3061V80.7371H21.6281V68.593H23.0738V71.3399C23.5653 70.4146 24.2304 69.6918 25.04 69.1713C25.8496 68.6509 26.7459 68.3906 27.729 68.3906C28.741 68.3906 29.5795 68.6798 30.1867 69.2581C30.7939 69.8363 31.1698 70.5881 31.3144 71.5134C32.4421 69.4316 34.0034 68.3906 35.9985 68.3906C36.6925 68.3906 37.2708 68.5063 37.7334 68.7665C38.196 69.0267 38.6009 69.3737 38.89 69.8363C39.1791 70.299 39.3815 70.8484 39.5261 71.4845C39.6707 72.1206 39.7285 72.8435 39.7285 73.6531V80.7949H39.6996Z" fill="#4198D7"/>
  <path d="M48.7787 80.1873C48.692 80.2451 48.5474 80.3029 48.3739 80.3608C48.2004 80.4475 47.998 80.5053 47.7667 80.5921C47.5354 80.6788 47.2752 80.7366 46.986 80.7945C46.6969 80.8523 46.3788 80.8812 46.0608 80.8812C45.7138 80.8812 45.3957 80.8234 45.0777 80.7367C44.7596 80.6499 44.4994 80.5053 44.2681 80.3029C44.0367 80.1005 43.8343 79.8692 43.7187 79.5801C43.5741 79.2909 43.5163 78.944 43.5163 78.5681V69.8648H41.8392V68.5926H43.5163V64.5156H45.1066V68.6215H47.9113V69.8937H45.1066V78.1343C45.1355 78.597 45.309 78.915 45.5981 79.1174C45.8873 79.3198 46.2053 79.4355 46.5812 79.4355C47.0438 79.4355 47.4197 79.3488 47.7667 79.2042C48.1137 79.0596 48.3161 78.944 48.4317 78.8861L48.7787 80.1873Z" fill="#4198D7"/>
  <path d="M53.8098 81.0251C53.2315 81.0251 52.7111 80.9383 52.2195 80.7359C51.728 80.5335 51.2943 80.2733 50.9473 79.9263C50.5714 79.5793 50.3112 79.1745 50.1088 78.7119C49.9064 78.2493 49.8196 77.7577 49.8196 77.2373C49.8196 76.7168 49.9353 76.2253 50.1955 75.7626C50.4558 75.3 50.8027 74.9241 51.2364 74.606C51.6991 74.288 52.2195 74.0278 52.8557 73.8543C53.4629 73.6808 54.1568 73.594 54.9086 73.594C55.5158 73.594 56.1519 73.6519 56.788 73.7675C57.4242 73.8832 58.0024 74.0278 58.494 74.2302V73.1314C58.494 72.0616 58.2048 71.1941 57.5976 70.5869C56.9904 69.9508 56.1519 69.6328 55.0821 69.6328C54.446 69.6328 53.8098 69.7484 53.1737 70.0086C52.5087 70.2689 51.8726 70.6159 51.1786 71.0785L50.6292 70.0376C52.1906 68.9677 53.7231 68.4473 55.1977 68.4473C56.7302 68.4473 57.9157 68.881 58.7831 69.7195C59.6506 70.5869 60.0843 71.7435 60.0843 73.276V78.7697C60.0843 79.2034 60.2867 79.4348 60.6626 79.4348V80.8227C60.4023 80.8805 60.1999 80.8805 60.0554 80.8805C59.6506 80.8805 59.3325 80.7937 59.1012 80.5913C58.8699 80.3889 58.7542 80.0998 58.7253 79.7528L58.6675 78.7986C58.1181 79.5215 57.3952 80.0998 56.5567 80.4757C55.6893 80.8227 54.7929 81.0251 53.8098 81.0251ZM54.1857 79.8107C54.9953 79.8107 55.776 79.6661 56.47 79.348C57.1639 79.03 57.6844 78.6252 58.0314 78.1047C58.1759 77.9601 58.2627 77.8156 58.3494 77.6421C58.4072 77.4686 58.4651 77.324 58.4651 77.1794V75.2133C57.9446 75.0109 57.3952 74.8663 56.8169 74.7506C56.2387 74.635 55.6604 74.5771 55.0821 74.5771C53.9544 74.5771 53.0581 74.8085 52.3641 75.2711C51.6702 75.7337 51.3232 76.3409 51.3232 77.1216C51.3232 77.4975 51.4099 77.8445 51.5545 78.1625C51.6991 78.4806 51.9015 78.7697 52.1617 79.0011C52.4219 79.2324 52.7111 79.4348 53.087 79.5793C53.405 79.7239 53.7809 79.8107 54.1857 79.8107Z" fill="#4198D7"/>
  <path d="M81.5388 80.7949H79.9485V74C79.9485 72.5832 79.7172 71.5423 79.2835 70.8773C78.8209 70.2122 78.1558 69.8653 77.2884 69.8653C76.8258 69.8653 76.392 69.952 75.9583 70.1255C75.5535 70.299 75.1776 70.5303 74.8017 70.8484C74.4548 71.1664 74.1367 71.5423 73.8765 71.9471C73.6163 72.3808 73.4139 72.8435 73.2693 73.3639V80.766H71.679V73.9711C71.679 72.5254 71.4477 71.4845 71.0139 70.8194C70.5802 70.1544 69.9152 69.8363 69.0188 69.8363C68.0936 69.8363 67.284 70.1544 66.5611 70.7905C65.8383 71.4267 65.3467 72.2652 65.0287 73.3061V80.7371H63.4384V68.593H64.8841V71.3399C65.3756 70.4146 66.0407 69.6918 66.8503 69.1713C67.6599 68.6509 68.5562 68.3906 69.5393 68.3906C70.5513 68.3906 71.3898 68.6798 71.997 69.2581C72.6042 69.8363 72.9801 70.5881 73.1247 71.5134C74.2524 69.4316 75.8137 68.3906 77.8088 68.3906C78.5028 68.3906 79.0811 68.5063 79.5437 68.7665C80.0063 69.0267 80.4111 69.3737 80.7003 69.8363C80.9894 70.299 81.1918 70.8484 81.3364 71.4845C81.481 72.1206 81.5388 72.8435 81.5388 73.6531V80.7949Z" fill="#4198D7"/>
  <path d="M91.283 81.2868C90.2421 81.2868 89.3168 80.9976 88.5072 80.4483C87.6976 79.8989 87.0326 79.2339 86.541 78.4243V85.9998H85.3845V68.9114H86.4543V71.3402C86.9458 70.5595 87.6109 69.9234 88.4205 69.4318C89.2301 68.9403 90.0975 68.709 91.0517 68.709C91.8902 68.709 92.6709 68.8825 93.3938 69.2584C94.1166 69.6053 94.7238 70.0969 95.2443 70.6752C95.7648 71.2535 96.1696 71.9185 96.4587 72.6992C96.7478 73.451 96.8924 74.2316 96.8924 75.0413C96.8924 75.8798 96.7479 76.6894 96.4876 77.4412C96.2274 78.1929 95.8515 78.858 95.36 79.4363C94.8684 80.0145 94.2901 80.4772 93.5962 80.7952C92.8444 81.1133 92.0926 81.2868 91.283 81.2868ZM90.9939 80.2169C91.6878 80.2169 92.3239 80.0724 92.9022 79.7832C93.4805 79.4941 93.9721 79.0893 94.3769 78.5977C94.7817 78.1062 95.0997 77.5568 95.3021 76.9207C95.5334 76.2846 95.6202 75.6485 95.6202 74.9834C95.6202 74.2895 95.5045 73.6244 95.2443 72.9883C94.9841 72.3522 94.6371 71.8028 94.2034 71.3113C93.7697 70.8197 93.2492 70.4439 92.642 70.1547C92.0637 69.8656 91.4276 69.721 90.7626 69.721C90.3288 69.721 89.8951 69.8077 89.4325 69.9812C88.9699 70.1547 88.5072 70.4149 88.1024 70.7041C87.6687 70.9932 87.3217 71.3402 87.0326 71.745C86.7434 72.1209 86.57 72.5546 86.5121 72.9883V76.9785C86.7145 77.4412 86.9748 77.846 87.2928 78.2508C87.6109 78.6267 87.9579 78.9736 88.3337 79.2628C88.7096 79.5519 89.1433 79.7832 89.606 79.9567C90.0397 80.1302 90.5023 80.2169 90.9939 80.2169Z" fill="#F49649"/>
  <path d="M105.364 69.9519C104.266 69.9808 103.311 70.2989 102.502 70.9061C101.692 71.5133 101.114 72.3518 100.796 73.4216V80.9972H99.6393V68.8821H100.767V71.8602C101.201 70.9928 101.75 70.2989 102.444 69.7784C103.138 69.229 103.89 68.9399 104.67 68.8531C104.815 68.8242 104.96 68.8242 105.104 68.8242C105.22 68.8242 105.335 68.8242 105.393 68.8242V69.9519H105.364Z" fill="#F49649"/>
  <path d="M112.044 81.2856C111.176 81.2856 110.395 81.1121 109.673 80.794C108.95 80.476 108.314 80.0134 107.793 79.4351C107.273 78.8568 106.839 78.1917 106.55 77.44C106.261 76.6882 106.116 75.8786 106.116 75.0401C106.116 74.1726 106.261 73.363 106.579 72.6112C106.868 71.8595 107.302 71.1944 107.822 70.6162C108.343 70.0379 108.979 69.5752 109.702 69.2572C110.424 68.9102 111.205 68.7656 112.044 68.7656C112.882 68.7656 113.663 68.9391 114.386 69.2572C115.109 69.6041 115.716 70.0379 116.265 70.6162C116.815 71.1944 117.219 71.8595 117.537 72.6112C117.827 73.363 118 74.1726 118 75.0401C118 75.8786 117.855 76.6882 117.537 77.44C117.248 78.1917 116.815 78.8568 116.294 79.4351C115.774 80.0134 115.137 80.476 114.415 80.794C113.663 81.1121 112.882 81.2856 112.044 81.2856ZM107.302 75.0401C107.302 75.7629 107.417 76.428 107.678 77.0641C107.938 77.7002 108.256 78.2496 108.69 78.7122C109.123 79.1748 109.615 79.5507 110.193 79.811C110.771 80.0712 111.379 80.2158 112.044 80.2158C112.709 80.2158 113.316 80.0712 113.894 79.811C114.472 79.5507 114.964 79.1748 115.398 78.6833C115.831 78.1917 116.178 77.6424 116.41 77.0063C116.67 76.3701 116.786 75.7051 116.786 74.9533C116.786 74.2305 116.67 73.5654 116.41 72.9293C116.149 72.2932 115.831 71.7438 115.398 71.2812C114.964 70.8185 114.472 70.4427 113.894 70.1535C113.316 69.8644 112.709 69.7198 112.073 69.7198C111.436 69.7198 110.8 69.8644 110.222 70.1535C109.644 70.4427 109.152 70.8185 108.718 71.3101C108.285 71.8016 107.938 72.351 107.706 72.9871C107.417 73.6522 107.302 74.3461 107.302 75.0401Z" fill="#F49649"/>
  <path d="M80.0064 86.0157V83.7314H81.5389V86.0157H80.0064Z" fill="#F7953E"/>
  <path d="M52.7931 35.0219C55.5822 35.0219 57.8432 32.764 57.8432 29.9787C57.8432 27.1934 55.5822 24.9355 52.7931 24.9355C50.0039 24.9355 47.7429 27.1934 47.7429 29.9787C47.7429 32.764 50.0039 35.0219 52.7931 35.0219Z" fill="#F7953E"/>
  <path fill-rule="evenodd" clip-rule="evenodd" d="M52.7931 19.8919C47.2148 19.8919 42.6927 24.4077 42.6927 29.9783C42.6927 35.5489 47.2148 40.0648 52.7931 40.0648C58.3714 40.0648 62.8936 35.5489 62.8936 29.9783C62.8936 24.4077 58.3714 19.8919 52.7931 19.8919ZM37.6425 29.9783C37.6425 21.6224 44.4256 14.8486 52.7931 14.8486C61.1606 14.8486 67.9438 21.6224 67.9438 29.9783C67.9438 38.3342 61.1606 45.108 52.7931 45.108C44.4256 45.108 37.6425 38.3342 37.6425 29.9783Z" fill="#4198D7"/>
  <path fill-rule="evenodd" clip-rule="evenodd" d="M43.7216 11.9486C37.1153 15.271 32.5923 22.0998 32.5923 29.9787C32.5923 41.1198 41.6362 50.1514 52.7931 50.1514C53.9967 50.1514 55.174 50.0465 56.3165 49.8458L57.1914 54.8128C55.7612 55.064 54.2911 55.1947 52.7931 55.1947C38.847 55.1947 27.5421 43.905 27.5421 29.9787C27.5421 20.1217 33.2064 11.5901 41.4501 7.44434L43.7216 11.9486Z" fill="#6D7F92" fill-opacity="0.5"/>
  <path fill-rule="evenodd" clip-rule="evenodd" d="M72.9939 29.9792C72.9939 23.378 69.8202 17.5175 64.9095 13.8359L66.1224 12.2227C71.5194 16.2689 75.014 22.7166 75.014 29.9792C75.014 31.7264 74.8114 33.428 74.4283 35.061L72.4614 34.6008C72.8095 33.1174 72.9939 31.5703 72.9939 29.9792Z" fill="#6D7F92" fill-opacity="0.3"/>
  <path fill-rule="evenodd" clip-rule="evenodd" d="M78.0443 29.9786C78.0443 21.7175 74.0675 14.3843 67.917 9.78351L69.1281 8.16895C75.766 13.1343 80.0644 21.0553 80.0644 29.9786C80.0644 32.1056 79.8199 34.1762 79.3576 36.1644L77.3899 35.7081C77.8177 33.8683 78.0443 31.9508 78.0443 29.9786Z" fill="#6D7F92" fill-opacity="0.4"/>
  <path fill-rule="evenodd" clip-rule="evenodd" d="M83.0945 29.9784C83.0945 20.0562 78.3134 11.2497 70.9222 5.72976L72.132 4.11426C80.0113 9.99863 85.1146 19.3934 85.1146 29.9784C85.1146 32.4845 84.8286 34.9251 84.2862 37.269L82.318 36.8148C82.8261 34.619 83.0945 32.3307 83.0945 29.9784Z" fill="#6D7F92" fill-opacity="0.5"/>
</svg>
